<mxfile host="app.diagrams.net" modified="2021-05-26T20:10:52.266Z" agent="5.0 (Windows NT 10.0; Win64; x64) AppleWebKit/537.36 (KHTML, like Gecko) Chrome/90.0.4430.212 Safari/537.36" etag="zssOwET1FVKfu4KXKvot" version="14.7.0" type="github">
  <diagram id="dLfifBfxBkRkTiug_0Z0" name="Page-1">
    <mxGraphModel dx="1038" dy="548" grid="1" gridSize="10" guides="1" tooltips="1" connect="1" arrows="1" fold="1" page="1" pageScale="1" pageWidth="827" pageHeight="1169" math="0" shadow="0">
      <root>
        <mxCell id="0" />
        <mxCell id="1" parent="0" />
        <mxCell id="M-PH0rHC3nq52m_BWf26-2" value="&lt;font style=&quot;font-size: 16px&quot;&gt;&lt;span style=&quot;font-size: 16px&quot;&gt;Прокси&lt;br&gt;&lt;/span&gt;http://localhost:44335&lt;br&gt;&lt;div style=&quot;text-align: left&quot;&gt;&lt;br&gt;&lt;/div&gt;&lt;/font&gt;" style="rounded=1;whiteSpace=wrap;html=1;verticalAlign=top;" vertex="1" parent="1">
          <mxGeometry x="110" y="320" width="240" height="280" as="geometry" />
        </mxCell>
        <mxCell id="M-PH0rHC3nq52m_BWf26-1" value="&lt;p style=&quot;line-height: normal ; margin-top: 0pt ; margin-bottom: 0pt ; margin-right: 0in ; text-align: left ; direction: ltr ; unicode-bidi: embed&quot;&gt;&lt;font style=&quot;font-size: 15px&quot;&gt;/api/customers&lt;/font&gt;&lt;/p&gt;" style="rounded=0;whiteSpace=wrap;html=1;" vertex="1" parent="1">
          <mxGeometry x="150" y="380" width="160" height="40" as="geometry" />
        </mxCell>
        <mxCell id="M-PH0rHC3nq52m_BWf26-3" value="&lt;font style=&quot;font-size: 16px&quot;&gt;/api/movies&lt;/font&gt;" style="rounded=0;whiteSpace=wrap;html=1;" vertex="1" parent="1">
          <mxGeometry x="150" y="450" width="160" height="40" as="geometry" />
        </mxCell>
        <mxCell id="M-PH0rHC3nq52m_BWf26-4" value="&lt;font style=&quot;font-size: 16px&quot;&gt;/api/newRental&lt;/font&gt;" style="rounded=0;whiteSpace=wrap;html=1;" vertex="1" parent="1">
          <mxGeometry x="150" y="520" width="160" height="40" as="geometry" />
        </mxCell>
        <mxCell id="M-PH0rHC3nq52m_BWf26-5" value="" style="endArrow=classic;html=1;entryX=0;entryY=0.5;entryDx=0;entryDy=0;" edge="1" parent="1" target="M-PH0rHC3nq52m_BWf26-1">
          <mxGeometry width="50" height="50" relative="1" as="geometry">
            <mxPoint x="50" y="400" as="sourcePoint" />
            <mxPoint x="70" y="410" as="targetPoint" />
          </mxGeometry>
        </mxCell>
        <mxCell id="M-PH0rHC3nq52m_BWf26-6" value="" style="endArrow=classic;html=1;entryX=0;entryY=0.5;entryDx=0;entryDy=0;" edge="1" parent="1">
          <mxGeometry width="50" height="50" relative="1" as="geometry">
            <mxPoint x="50" y="469.5" as="sourcePoint" />
            <mxPoint x="150" y="469.5" as="targetPoint" />
          </mxGeometry>
        </mxCell>
        <mxCell id="M-PH0rHC3nq52m_BWf26-7" value="" style="endArrow=classic;html=1;entryX=0;entryY=0.5;entryDx=0;entryDy=0;" edge="1" parent="1">
          <mxGeometry width="50" height="50" relative="1" as="geometry">
            <mxPoint x="50" y="539.5" as="sourcePoint" />
            <mxPoint x="150" y="539.5" as="targetPoint" />
          </mxGeometry>
        </mxCell>
        <mxCell id="M-PH0rHC3nq52m_BWf26-9" value="&lt;span style=&quot;font-size: 16px&quot;&gt;Web-служба&lt;br&gt;&lt;/span&gt;&lt;span style=&quot;font-size: 16px&quot;&gt;http://localhost:44335&lt;/span&gt;&lt;span style=&quot;font-size: 16px&quot;&gt;&lt;br&gt;&lt;/span&gt;" style="rounded=1;whiteSpace=wrap;html=1;verticalAlign=top;" vertex="1" parent="1">
          <mxGeometry x="430" y="320" width="240" height="280" as="geometry" />
        </mxCell>
        <mxCell id="M-PH0rHC3nq52m_BWf26-10" value="&lt;span style=&quot;font-size: 15px ; text-align: left&quot;&gt;/api/customers&lt;/span&gt;" style="rounded=0;whiteSpace=wrap;html=1;" vertex="1" parent="1">
          <mxGeometry x="470" y="380" width="160" height="40" as="geometry" />
        </mxCell>
        <mxCell id="M-PH0rHC3nq52m_BWf26-11" value="&lt;span style=&quot;font-size: 16px&quot;&gt;/api/newRental&lt;/span&gt;" style="rounded=0;whiteSpace=wrap;html=1;" vertex="1" parent="1">
          <mxGeometry x="470" y="520" width="160" height="40" as="geometry" />
        </mxCell>
        <mxCell id="M-PH0rHC3nq52m_BWf26-12" value="&lt;span style=&quot;font-size: 16px&quot;&gt;/api/movies&lt;/span&gt;" style="rounded=0;whiteSpace=wrap;html=1;" vertex="1" parent="1">
          <mxGeometry x="470" y="450" width="160" height="40" as="geometry" />
        </mxCell>
        <mxCell id="M-PH0rHC3nq52m_BWf26-15" value="" style="endArrow=classic;startArrow=classic;html=1;entryX=0;entryY=0.5;entryDx=0;entryDy=0;exitX=1;exitY=0.5;exitDx=0;exitDy=0;" edge="1" parent="1" source="M-PH0rHC3nq52m_BWf26-1" target="M-PH0rHC3nq52m_BWf26-10">
          <mxGeometry width="50" height="50" relative="1" as="geometry">
            <mxPoint x="380" y="440" as="sourcePoint" />
            <mxPoint x="430" y="390" as="targetPoint" />
          </mxGeometry>
        </mxCell>
        <mxCell id="M-PH0rHC3nq52m_BWf26-16" value="" style="endArrow=classic;startArrow=classic;html=1;exitX=1;exitY=0.5;exitDx=0;exitDy=0;" edge="1" parent="1">
          <mxGeometry width="50" height="50" relative="1" as="geometry">
            <mxPoint x="310" y="539.5" as="sourcePoint" />
            <mxPoint x="470" y="540" as="targetPoint" />
          </mxGeometry>
        </mxCell>
        <mxCell id="M-PH0rHC3nq52m_BWf26-17" value="" style="endArrow=classic;startArrow=classic;html=1;exitX=1;exitY=0.5;exitDx=0;exitDy=0;" edge="1" parent="1">
          <mxGeometry width="50" height="50" relative="1" as="geometry">
            <mxPoint x="310" y="469.5" as="sourcePoint" />
            <mxPoint x="470" y="470" as="targetPoint" />
          </mxGeometry>
        </mxCell>
      </root>
    </mxGraphModel>
  </diagram>
</mxfile>
